<?xml version="1.0" encoding="UTF-8"?>
<svg width="1440px" height="230px" viewBox="0 0 1440 230" version="1.1" xmlns="http://www.w3.org/2000/svg" xmlns:xlink="http://www.w3.org/1999/xlink">
    <!-- Generator: Sketch 47.1 (45422) - http://www.bohemiancoding.com/sketch -->
    <title>Ondas</title>
    <desc>Created with Sketch.</desc>
    <defs>
        <rect id="path-1" x="0" y="0" width="1461" height="239"></rect>
    </defs>
    <g id="Podcast" stroke="none" stroke-width="1" fill="none" fill-rule="evenodd">
        <g id="Desktop-HD---Podcast" transform="translate(0.000000, -863.000000)">
            <g id="Ondas" transform="translate(709.500000, 973.500000) scale(1, -1) translate(-709.500000, -973.500000) translate(-21.000000, 854.000000)">
                <mask id="mask-2" fill="white">
                    <use xlink:href="#path-1"></use>
                </mask>
                <g id="Mask"></g>
                <g mask="url(#mask-2)">
                    <g transform="translate(786.500000, -155.000000) scale(1, -1) translate(-786.500000, 155.000000) translate(21.000000, -537.000000)">
                        <path d="M0,164.503262 L55.1159336,158.024595 L116.196426,139.107306 L196.00939,91.6686936 L252.334955,66.3669767 L310.834706,71.1668861 L385.627597,116.77656 L429.464849,133.178006 L482.30818,139.107306 L531.063865,122.549936 C531.063865,122.549936 547.140973,109.748389 568.312272,91.6686936 C583.262489,78.9016276 600.102589,62.3465072 618.473223,50.8884281 C638.434335,38.4383405 653.411845,21.675064 670.865809,13.7533965 C700.498588,0.304244247 727.536062,0.00686081909 727.536062,0.00686081909 C727.536062,0.00686081909 747.297373,-0.560547865 769.000269,8.62478405 C787.786023,16.575492 806.812712,32.8387333 830.482898,50.8884281 C894.65321,99.8214853 965.253213,178.902796 1018.02856,189.997301 C1029.15584,192.336493 1044.57298,197.588914 1060.29704,197.662828 C1073.81335,197.726364 1087.26156,193.043553 1101.80543,189.997301 C1131.39383,183.799934 1160.50513,169.440278 1190.6068,152.51671 C1237.69738,126.041744 1281.85815,92.4077429 1321.60594,71.1668861 C1336.02523,63.4613483 1348.65459,52.2958202 1362.341,50.8884281 C1376.58908,49.4232792 1391.03418,39.1051082 1408.30383,33.5809412 C1453.84802,19.012395 1505.41543,4.70096886 1522.71375,26.0376245 C1547.04548,56.0496459 1510.0274,164.503262 1510.0274,164.503262 L1510.0274,763.503262 L0,763.503262 L0,164.503262 Z" id="Rectangle-3" stroke="none" fill="#F4F4F4" fill-rule="evenodd"></path>
                        <path d="M1,162.377467 C140.281731,162.377472 190.85617,66.8627002 271.046439,66.8627002 C351.236707,66.8627002 370.918829,138.514074 471.423182,138.514076 C571.927535,138.514079 612.14282,0.99999836 728.305762,1 C844.468704,1.00000164 916.303581,197.000002 1059.70774,197 C1203.11191,196.999998 1296.67691,19.1262561 1511.0274,19.1262549" id="LIKES_GRAPH" stroke="#5D5D5D" stroke-width="8" fill="none" stroke-linecap="round" stroke-linejoin="round"></path>
                    </g>
                </g>
            </g>
        </g>
    </g>
</svg>